<?xml version="1.0" encoding="utf-8"?>
<!-- Generator: Adobe Illustrator 27.5.0, SVG Export Plug-In . SVG Version: 6.00 Build 0)  -->
<svg version="1.1" id="Layer_1" xmlns="http://www.w3.org/2000/svg" xmlns:xlink="http://www.w3.org/1999/xlink" x="0px" y="0px"
	 viewBox="0 0 221.323 250.615" style="enable-background:new 0 0 221.323 250.615;" xml:space="preserve">
<g>
	<g>
		<path style="fill:#FFFFFF;" d="M198.487,81.807l-1.087-0.949c-5.92-5.173-11.512-10.06-18.896-13.731
			c-8.326-4.142-17.349-6.283-25.311-8.172c-4.346-1.029-8.957-1.126-13.416-1.219c-1.422-0.03-2.819-0.058-4.164-0.121
			c-5.532-0.259-10.775,0.904-15.794,2.026c-0.084,0.02-0.167,0.038-0.252,0.056c0.953-3.397,2.229-6.732,3.849-10.074
			c3.198-6.598,6.549-12.348,9.955-17.088c0.232-0.322,0.523-0.665,0.824-1.029c1.566-1.891,3.909-4.719,3.714-8.407
			c0.032-4.893-3.511-8.562-5.871-11.007l-0.232-0.24c-2.34-2.433-5.499-3.827-8.67-3.827c-2.753,0-5.376,1.067-7.389,3.008
			c-1.536,1.483-2.539,3.406-2.884,5.497c-0.037,0.12-0.069,0.24-0.095,0.359c-1.789,7.52-4.367,15.051-6.86,22.336
			c-1.658,4.845-3.373,9.854-4.873,14.895c-0.68,2.287-1.269,4.529-1.758,6.706c-1.306-0.155-2.626-0.326-3.981-0.502
			c-4.73-0.613-9.623-1.247-14.643-1.247l-0.315,0.001c-7.891,0.041-16.169,1.786-26.052,5.493
			c-7.8,2.927-15.397,7.644-22.583,14.02c-2.276,2.021-4.272,4.205-6.26,6.852C7.5,103.456,7.706,134.48,8.201,143.594
			c1.438,26.497,14.76,55.009,36.549,78.226c8.254,8.791,19.421,19.334,32.615,22.855l0.93,0.249
			c3.531,0.95,7.183,1.932,11.103,1.932c2.368,0,4.604-0.348,6.835-1.063c2.063-0.66,3.875-1.621,5.474-2.468
			c0.935-0.494,1.816-0.962,2.675-1.337c1.783-0.776,3.975-0.936,6.716-0.936c0.531,0,1.062,0.006,1.588,0.011l0.748,0.007
			c3.254,0.024,6.448,1.298,9.829,2.646c2.565,1.022,5.218,2.08,8.076,2.713c0.371,0.089,0.8,0.14,1.182,0.14
			c0.136,0,0.283-0.006,0.441-0.02c1.209,0.2,2.427,0.299,3.694,0.299h0.001c3.932,0,7.597-0.984,11.141-1.937l0.881-0.236
			c13.194-3.523,24.36-14.064,32.615-22.856c21.79-23.219,35.111-51.73,36.548-78.225
			C218.966,122.865,214.473,95.748,198.487,81.807z"/>
		<path style="fill:#F1F1F1;" d="M198.057,81.418l-1.087-0.948c-5.92-5.173-11.512-10.06-18.896-13.732
			c-8.327-4.14-17.348-6.283-25.31-8.172c-4.347-1.029-8.958-1.126-13.417-1.219c-1.421-0.029-2.82-0.057-4.164-0.119
			c-5.532-0.26-10.78,0.88-15.793,2.024c-0.085,0.021-0.169,0.039-0.253,0.057c0.953-3.398,2.228-6.733,3.848-10.073
			c3.199-6.599,6.55-12.348,9.956-17.089c0.232-0.322,0.521-0.665,0.824-1.029c1.565-1.892,3.909-4.719,3.714-8.407
			c0.032-4.892-3.512-8.562-5.871-11.007l-0.233-0.24c-2.339-2.434-5.498-3.828-8.669-3.828c-2.753,0-5.377,1.068-7.389,3.009
			c-1.536,1.483-2.54,3.406-2.885,5.496c-0.036,0.12-0.067,0.241-0.095,0.359c-1.71,7.539-4.366,15.053-6.858,22.337
			c-1.66,4.846-3.375,9.854-4.874,14.894c-0.68,2.288-1.269,4.53-1.758,6.707c-1.306-0.155-2.626-0.327-3.981-0.503
			c-4.73-0.612-9.623-1.246-14.644-1.246l-0.314,0.001c-7.892,0.041-16.169,1.786-26.052,5.492
			c-7.8,2.929-15.397,7.645-22.583,14.02c-2.275,2.021-4.273,4.205-6.26,6.852C7.068,103.068,7.275,134.091,7.771,143.206
			c1.438,26.497,14.76,55.009,36.549,78.225c8.254,8.792,19.42,19.335,32.615,22.856l0.929,0.25c3.531,0.949,7.184,1.93,11.104,1.93
			c2.368,0,4.604-0.347,6.835-1.063c2.063-0.659,3.874-1.62,5.474-2.468c0.934-0.493,1.815-0.96,2.675-1.336
			c1.783-0.777,3.974-0.937,6.715-0.937c0.532,0,1.063,0.007,1.589,0.011l0.748,0.009c3.253,0.023,6.447,1.296,9.829,2.646
			c2.565,1.021,5.226,2.051,8.075,2.711c0.374,0.086,0.801,0.141,1.183,0.141c0.136,0,0.283-0.005,0.441-0.02
			c1.209,0.201,2.428,0.299,3.694,0.299h0.001c3.932,0,7.596-0.983,11.142-1.938l0.88-0.235
			c13.193-3.522,24.36-14.064,32.614-22.857c21.79-23.217,35.111-51.728,36.55-78.224
			C218.536,122.478,214.041,95.359,198.057,81.418z"/>
		<path style="fill:#E2E2E2;" d="M197.626,81.032l-1.086-0.949c-5.921-5.173-11.514-10.061-18.896-13.732
			c-8.326-4.142-17.349-6.283-25.31-8.172c-4.347-1.029-8.958-1.127-13.416-1.22c-1.422-0.028-2.82-0.058-4.165-0.12
			c-5.531-0.259-10.783,0.868-15.794,2.026c-0.084,0.019-0.167,0.038-0.251,0.056c0.952-3.396,2.228-6.732,3.847-10.074
			c3.199-6.598,6.55-12.348,9.956-17.089c0.232-0.322,0.522-0.664,0.824-1.027c1.566-1.892,3.91-4.721,3.713-8.408
			c0.034-4.893-3.511-8.562-5.869-11.006l-0.233-0.242c-2.34-2.432-5.5-3.826-8.669-3.826c-2.755,0-5.377,1.068-7.389,3.007
			c-1.537,1.484-2.541,3.407-2.885,5.497c-0.037,0.12-0.068,0.241-0.095,0.36c-1.704,7.54-4.367,15.051-6.86,22.335
			c-1.658,4.846-3.373,9.855-4.872,14.896c-0.682,2.286-1.269,4.529-1.76,6.705c-1.304-0.154-2.626-0.324-3.981-0.502
			c-4.73-0.612-9.622-1.245-14.642-1.245l-0.315,0.001c-7.891,0.04-16.169,1.786-26.052,5.492c-7.8,2.927-15.398,7.644-22.584,14.02
			c-2.276,2.021-4.272,4.204-6.258,6.852C6.638,102.68,6.845,133.705,7.341,142.818c1.437,26.497,14.759,55.01,36.547,78.227
			c8.256,8.789,19.422,19.333,32.615,22.855l0.931,0.248c3.531,0.951,7.183,1.932,11.103,1.932c2.367,0,4.604-0.348,6.836-1.063
			c2.062-0.66,3.874-1.62,5.472-2.467c0.935-0.494,1.817-0.962,2.677-1.337c1.782-0.777,3.974-0.936,6.715-0.936
			c0.531,0,1.062,0.006,1.589,0.01l0.747,0.009c3.254,0.024,6.448,1.297,9.83,2.646c2.563,1.022,5.222,2.054,8.075,2.711
			c0.372,0.085,0.801,0.141,1.183,0.141c0.135,0,0.283-0.006,0.44-0.02c1.208,0.202,2.427,0.301,3.695,0.301l0,0
			c3.931,0,7.597-0.984,11.142-1.938l0.88-0.234c13.194-3.524,24.36-14.066,32.614-22.857c21.791-23.22,35.111-51.729,36.548-78.225
			C218.105,122.089,213.611,94.973,197.626,81.032z"/>
		<path style="fill:#D4D4D4;" d="M197.195,80.644l-1.087-0.95c-5.92-5.172-11.512-10.059-18.895-13.73
			c-8.326-4.142-17.349-6.283-25.311-8.172c-4.346-1.03-8.957-1.127-13.416-1.22c-1.422-0.029-2.819-0.058-4.164-0.12
			c-5.532-0.26-10.775,0.904-15.794,2.026c-0.084,0.019-0.167,0.038-0.252,0.056c0.953-3.397,2.229-6.733,3.848-10.074
			c3.199-6.598,6.55-12.348,9.956-17.089c0.232-0.321,0.521-0.664,0.824-1.028c1.566-1.891,3.909-4.719,3.713-8.407
			c0.033-4.893-3.51-8.563-5.871-11.007l-0.231-0.24c-2.34-2.433-5.499-3.827-8.67-3.827c-2.753,0-5.376,1.067-7.389,3.007
			c-1.536,1.484-2.539,3.407-2.884,5.497c-0.037,0.121-0.068,0.241-0.095,0.36c-1.704,7.539-4.367,15.051-6.86,22.336
			c-1.659,4.845-3.373,9.854-4.873,14.895c-0.68,2.286-1.269,4.528-1.758,6.706c-1.306-0.156-2.626-0.326-3.982-0.503
			c-4.73-0.612-9.622-1.246-14.642-1.246l-0.315,0.001c-7.891,0.041-16.169,1.786-26.052,5.493
			c-7.8,2.927-15.398,7.644-22.583,14.02c-2.276,2.021-4.272,4.205-6.26,6.852C6.208,102.292,6.414,133.316,6.909,142.431
			c1.437,26.497,14.76,55.009,36.549,78.226c8.254,8.79,19.421,19.334,32.615,22.855l0.929,0.249
			c3.532,0.95,7.184,1.932,11.104,1.932c2.368,0,4.604-0.348,6.835-1.063c2.063-0.661,3.875-1.621,5.474-2.468
			c0.934-0.495,1.816-0.962,2.675-1.337c1.783-0.776,3.974-0.936,6.716-0.936c0.531,0,1.061,0.006,1.588,0.01l0.748,0.008
			c3.254,0.024,6.447,1.298,9.829,2.646c2.564,1.022,5.224,2.055,8.076,2.712c0.372,0.087,0.8,0.141,1.182,0.141
			c0.136,0,0.283-0.006,0.441-0.02c1.209,0.2,2.427,0.299,3.694,0.299h0.001c3.932,0,7.597-0.984,11.141-1.938l0.881-0.235
			c13.194-3.522,24.36-14.065,32.615-22.856c21.788-23.219,35.111-51.73,36.548-78.225
			C217.674,121.702,213.181,94.584,197.195,80.644z"/>
		<path style="fill:#C5C5C5;" d="M196.766,80.256l-1.088-0.949c-5.92-5.173-11.512-10.06-18.895-13.731
			c-8.327-4.142-17.349-6.283-25.31-8.172c-4.347-1.029-8.957-1.126-13.417-1.219c-1.421-0.029-2.819-0.059-4.164-0.121
			c-5.532-0.259-10.774,0.904-15.793,2.026c-0.084,0.02-0.168,0.038-0.253,0.057c0.954-3.398,2.229-6.733,3.849-10.074
			c3.198-6.598,6.55-12.348,9.955-17.089c0.232-0.322,0.521-0.665,0.825-1.029c1.566-1.891,3.908-4.719,3.713-8.406
			c0.032-4.892-3.511-8.563-5.871-11.008l-0.232-0.24c-2.341-2.433-5.499-3.827-8.669-3.827c-2.754,0-5.377,1.067-7.39,3.008
			c-1.536,1.483-2.54,3.406-2.884,5.497c-0.038,0.12-0.068,0.24-0.095,0.359c-1.676,7.545-4.367,15.052-6.859,22.336
			c-1.66,4.845-3.375,9.855-4.873,14.895c-0.681,2.287-1.27,4.529-1.759,6.706c-1.305-0.155-2.626-0.326-3.981-0.502
			c-4.732-0.613-9.623-1.247-14.644-1.247l-0.314,0.001c-7.891,0.041-16.17,1.787-26.052,5.493
			c-7.801,2.927-15.398,7.644-22.583,14.02c-2.276,2.021-4.273,4.205-6.259,6.852C5.776,101.905,5.984,132.929,6.479,142.043
			c1.436,26.497,14.76,55.009,36.547,78.225c8.256,8.791,19.422,19.334,32.616,22.855l0.93,0.249
			c3.531,0.95,7.183,1.932,11.102,1.932c2.367,0,4.604-0.348,6.836-1.063c2.062-0.66,3.873-1.621,5.473-2.468
			c0.934-0.494,1.815-0.962,2.676-1.337c1.781-0.776,3.974-0.936,6.715-0.936c0.53,0,1.062,0.006,1.588,0.011l0.748,0.007
			c3.253,0.025,6.447,1.298,9.83,2.646c2.564,1.021,5.223,2.055,8.075,2.712c0.372,0.086,0.8,0.14,1.183,0.14
			c0.135,0,0.283-0.006,0.441-0.02c1.209,0.201,2.427,0.299,3.694,0.299l0,0c3.931,0,7.597-0.983,11.142-1.937l0.88-0.236
			c13.194-3.522,24.361-14.064,32.614-22.856c21.79-23.219,35.112-51.729,36.549-78.225
			C217.243,121.314,212.749,94.197,196.766,80.256z"/>
		<path style="fill:#B7B7B7;" d="M196.334,79.869l-1.086-0.949c-5.921-5.174-11.513-10.061-18.896-13.732
			c-8.326-4.142-17.349-6.283-25.31-8.172c-4.347-1.029-8.957-1.126-13.416-1.219c-1.422-0.029-2.82-0.058-4.165-0.12
			c-5.531-0.26-10.774,0.903-15.792,2.026c-0.086,0.019-0.169,0.037-0.253,0.056c0.952-3.399,2.228-6.733,3.849-10.074
			c3.197-6.598,6.548-12.348,9.954-17.089c0.232-0.322,0.522-0.665,0.824-1.028c1.566-1.892,3.91-4.721,3.715-8.407
			c0.032-4.893-3.511-8.563-5.871-11.008l-0.233-0.24c-2.34-2.433-5.499-3.827-8.669-3.827c-2.753,0-5.377,1.067-7.389,3.007
			c-1.537,1.484-2.54,3.407-2.885,5.498c-0.037,0.12-0.068,0.24-0.095,0.36c-1.704,7.539-4.366,15.051-6.86,22.335
			c-1.658,4.846-3.373,9.854-4.872,14.895c-0.68,2.287-1.268,4.529-1.759,6.706c-1.305-0.155-2.626-0.326-3.981-0.502
			c-4.73-0.613-9.623-1.247-14.643-1.247l-0.315,0.001c-7.891,0.041-16.169,1.787-26.052,5.493
			c-7.799,2.928-15.397,7.643-22.583,14.019c-2.276,2.021-4.271,4.205-6.26,6.852C5.347,101.517,5.553,132.541,6.049,141.656
			c1.437,26.497,14.759,55.009,36.548,78.225c8.255,8.791,19.421,19.334,32.615,22.856l0.93,0.249
			c3.531,0.95,7.183,1.931,11.103,1.931c2.368,0,4.604-0.348,6.836-1.063c2.063-0.66,3.874-1.621,5.473-2.468
			c0.934-0.494,1.816-0.961,2.676-1.336c1.782-0.777,3.974-0.936,6.715-0.936c0.531,0,1.062,0.006,1.589,0.011l0.747,0.008
			c3.254,0.024,6.448,1.298,9.83,2.646c2.564,1.021,5.223,2.054,8.076,2.712c0.371,0.085,0.8,0.141,1.181,0.141
			c0.136,0,0.283-0.007,0.442-0.021c1.209,0.201,2.428,0.3,3.693,0.3c0,0,0,0,0.001,0c3.932,0,7.597-0.984,11.142-1.938l0.881-0.235
			c13.193-3.523,24.36-14.065,32.614-22.857c21.79-23.218,35.112-51.729,36.548-78.224
			C216.814,120.927,212.319,93.81,196.334,79.869z"/>
		<path style="fill:#A8A8A8;" d="M195.903,79.48l-1.086-0.948c-5.92-5.174-11.513-10.061-18.896-13.732
			c-8.327-4.141-17.349-6.283-25.311-8.172c-4.346-1.03-8.957-1.126-13.415-1.219c-1.423-0.03-2.821-0.059-4.165-0.121
			c-5.532-0.26-10.775,0.903-15.794,2.027c-0.084,0.019-0.167,0.038-0.252,0.055c0.953-3.397,2.229-6.733,3.848-10.073
			c3.2-6.599,6.55-12.349,9.956-17.09c0.232-0.321,0.522-0.664,0.824-1.027c1.565-1.892,3.909-4.72,3.713-8.408
			c0.034-4.893-3.51-8.561-5.87-11.007l-0.231-0.241c-2.341-2.433-5.5-3.826-8.67-3.826c-2.755,0-5.377,1.068-7.389,3.008
			c-1.537,1.483-2.54,3.406-2.885,5.496c-0.037,0.121-0.068,0.241-0.095,0.36c-1.704,7.539-4.367,15.051-6.86,22.336
			c-1.659,4.845-3.372,9.854-4.873,14.896c-0.68,2.285-1.269,4.527-1.758,6.704c-1.306-0.155-2.626-0.325-3.981-0.502
			c-4.73-0.611-9.623-1.246-14.642-1.246l-0.316,0.002c-7.891,0.039-16.168,1.785-26.052,5.492
			c-7.8,2.927-15.399,7.645-22.583,14.02c-2.276,2.021-4.272,4.206-6.26,6.852C4.915,101.13,5.122,132.153,5.617,141.268
			c1.438,26.497,14.76,55.01,36.549,78.226c8.254,8.79,19.421,19.333,32.615,22.855l0.929,0.25
			c3.532,0.949,7.185,1.931,11.104,1.931c2.367,0,4.604-0.347,6.835-1.063c2.062-0.659,3.875-1.62,5.473-2.466
			c0.935-0.495,1.815-0.963,2.676-1.338c1.783-0.777,3.973-0.936,6.715-0.936c0.531,0,1.062,0.005,1.589,0.011l0.747,0.008
			c3.254,0.024,6.447,1.297,9.83,2.645c2.564,1.023,5.223,2.055,8.075,2.713c0.372,0.087,0.801,0.14,1.182,0.14
			c0.136,0,0.283-0.005,0.441-0.021c1.209,0.201,2.427,0.3,3.694,0.3h0.001c3.932,0,7.596-0.983,11.141-1.938l0.881-0.235
			c13.193-3.522,24.36-14.065,32.614-22.855c21.79-23.22,35.111-51.73,36.549-78.226C216.382,120.539,211.889,93.421,195.903,79.48z
			"/>
		<path style="fill:#9A9A9A;" d="M195.473,79.093l-1.086-0.949c-5.922-5.173-11.513-10.06-18.897-13.731
			c-8.326-4.142-17.347-6.283-25.309-8.172c-4.346-1.03-8.957-1.126-13.416-1.22c-1.422-0.029-2.82-0.058-4.164-0.12
			c-5.533-0.259-10.776,0.904-15.794,2.026c-0.085,0.02-0.169,0.038-0.252,0.056c0.953-3.397,2.227-6.732,3.848-10.074
			c3.199-6.598,6.549-12.348,9.956-17.088c0.23-0.322,0.521-0.665,0.823-1.029c1.565-1.891,3.909-4.719,3.714-8.407
			c0.032-4.893-3.511-8.562-5.871-11.007l-0.233-0.24c-2.339-2.433-5.498-3.827-8.669-3.827c-2.753,0-5.377,1.067-7.389,3.008
			c-1.535,1.483-2.539,3.406-2.884,5.497c-0.038,0.12-0.068,0.24-0.095,0.359c-1.704,7.539-4.367,15.051-6.86,22.336
			c-1.658,4.845-3.374,9.854-4.872,14.895c-0.681,2.287-1.27,4.529-1.759,6.706c-1.305-0.155-2.625-0.326-3.981-0.502
			c-4.732-0.613-9.623-1.247-14.644-1.247l-0.314,0.001c-7.892,0.041-16.17,1.786-26.052,5.493
			c-7.8,2.927-15.397,7.644-22.582,14.02c-2.276,2.021-4.273,4.205-6.26,6.852C4.485,100.741,4.692,131.766,5.187,140.88
			c1.438,26.497,14.76,55.009,36.549,78.226c8.254,8.791,19.421,19.334,32.614,22.855l0.931,0.249
			c3.53,0.95,7.184,1.932,11.102,1.932c2.368,0,4.605-0.348,6.836-1.063c2.064-0.66,3.875-1.621,5.474-2.468
			c0.934-0.495,1.816-0.962,2.675-1.337c1.783-0.776,3.974-0.936,6.716-0.936c0.531,0,1.062,0.006,1.588,0.01l0.748,0.008
			c3.253,0.025,6.448,1.298,9.829,2.646c2.565,1.022,5.224,2.055,8.076,2.713c0.372,0.086,0.801,0.14,1.183,0.14
			c0.135,0,0.282-0.006,0.441-0.02c1.208,0.2,2.427,0.299,3.693,0.299c0,0,0,0,0.002,0c3.931,0,7.596-0.984,11.141-1.937
			l0.881-0.236c13.192-3.522,24.359-14.064,32.614-22.856c21.789-23.219,35.111-51.73,36.549-78.225
			C215.952,120.151,211.458,93.034,195.473,79.093z"/>
		<path style="fill:#8B8B8B;" d="M195.042,78.705l-1.086-0.949c-5.921-5.173-11.513-10.061-18.896-13.731
			c-8.326-4.142-17.349-6.283-25.31-8.172c-4.347-1.029-8.958-1.126-13.417-1.219c-1.422-0.029-2.819-0.058-4.164-0.12
			c-5.531-0.26-10.774,0.903-15.793,2.025c-0.085,0.02-0.168,0.038-0.252,0.057c0.952-3.398,2.228-6.733,3.848-10.074
			c3.198-6.598,6.549-12.348,9.955-17.089c0.232-0.322,0.522-0.666,0.824-1.029c1.566-1.891,3.909-4.72,3.714-8.406
			c0.033-4.893-3.511-8.563-5.87-11.008l-0.233-0.24c-2.34-2.433-5.499-3.827-8.67-3.827c-2.753,0-5.376,1.066-7.389,3.007
			c-1.536,1.484-2.539,3.407-2.884,5.498c-0.037,0.12-0.068,0.24-0.095,0.359c-1.704,7.54-4.367,15.052-6.86,22.336
			c-1.658,4.846-3.373,9.854-4.873,14.895c-0.68,2.287-1.268,4.529-1.758,6.706c-1.306-0.155-2.626-0.326-3.981-0.502
			c-4.73-0.613-9.623-1.247-14.643-1.247l-0.315,0.001c-7.891,0.041-16.169,1.787-26.052,5.493
			c-7.8,2.928-15.397,7.643-22.583,14.019c-2.276,2.021-4.272,4.205-6.26,6.852C4.055,100.354,4.261,131.378,4.757,140.493
			c1.437,26.496,14.759,55.008,36.548,78.225c8.255,8.791,19.421,19.334,32.615,22.855l0.93,0.249
			c3.531,0.95,7.183,1.932,11.103,1.932c2.368,0,4.604-0.348,6.836-1.063c2.062-0.66,3.874-1.621,5.473-2.468
			c0.934-0.495,1.816-0.961,2.675-1.337c1.783-0.776,3.975-0.936,6.716-0.936c0.531,0,1.062,0.006,1.589,0.011l0.747,0.007
			c3.254,0.025,6.448,1.298,9.83,2.646c2.564,1.021,5.223,2.055,8.075,2.712c0.372,0.086,0.8,0.14,1.182,0.14
			c0.136,0,0.283-0.006,0.441-0.02c1.209,0.201,2.428,0.3,3.694,0.3h0.001c3.932,0,7.597-0.984,11.142-1.938l0.881-0.236
			c13.193-3.522,24.359-14.064,32.614-22.856c21.79-23.218,35.111-51.729,36.548-78.224
			C215.521,119.764,211.027,92.646,195.042,78.705z"/>
		<path style="fill:#7D7D7D;" d="M194.611,78.318l-1.086-0.949c-5.921-5.173-11.513-10.061-18.896-13.731
			c-8.326-4.142-17.349-6.283-25.311-8.174c-4.345-1.028-8.957-1.126-13.415-1.219c-1.423-0.028-2.821-0.058-4.165-0.12
			c-5.531-0.26-10.782,0.875-15.794,2.026c-0.084,0.018-0.168,0.037-0.251,0.057c0.952-3.398,2.228-6.734,3.847-10.075
			c3.199-6.597,6.55-12.348,9.956-17.089c0.233-0.322,0.521-0.664,0.824-1.027c1.566-1.891,3.91-4.72,3.713-8.408
			c0.033-4.893-3.511-8.562-5.87-11.007l-0.231-0.241c-2.341-2.433-5.5-3.826-8.67-3.826c-2.755,0-5.377,1.068-7.39,3.008
			c-1.536,1.483-2.539,3.406-2.884,5.496c-0.036,0.12-0.068,0.24-0.096,0.36c-1.704,7.539-4.366,15.051-6.859,22.335
			c-1.659,4.846-3.373,9.856-4.873,14.896c-0.68,2.286-1.269,4.528-1.758,6.705c-1.306-0.155-2.626-0.324-3.981-0.501
			c-4.73-0.613-9.623-1.246-14.643-1.246l-0.315,0.001c-7.892,0.04-16.169,1.786-26.052,5.492c-7.8,2.928-15.399,7.644-22.583,14.02
			c-2.276,2.021-4.272,4.204-6.26,6.852C3.623,99.967,3.831,130.991,4.325,140.105c1.438,26.498,14.761,55.01,36.549,78.226
			c8.254,8.791,19.421,19.334,32.615,22.856l0.929,0.248c3.531,0.951,7.184,1.932,11.104,1.932c2.367,0,4.603-0.348,6.835-1.063
			c2.062-0.66,3.874-1.62,5.473-2.467c0.934-0.494,1.816-0.961,2.676-1.336c1.783-0.777,3.973-0.938,6.714-0.938
			c0.532,0,1.063,0.006,1.589,0.011l0.747,0.009c3.254,0.024,6.448,1.298,9.831,2.645c2.564,1.023,5.223,2.054,8.074,2.711
			c0.373,0.086,0.801,0.141,1.183,0.141c0.136,0,0.283-0.005,0.441-0.021c1.209,0.202,2.427,0.301,3.694,0.301h0.001
			c3.931,0,7.596-0.984,11.141-1.938l0.881-0.235c13.193-3.524,24.36-14.065,32.614-22.857
			c21.79-23.218,35.111-51.729,36.549-78.225C215.09,119.375,210.597,92.258,194.611,78.318z"/>
		<path style="fill:#6E6E6E;" d="M194.18,77.93l-1.086-0.949c-5.92-5.172-11.513-10.059-18.895-13.731
			c-8.326-4.142-17.348-6.283-25.31-8.172c-4.347-1.03-8.957-1.127-13.417-1.22c-1.421-0.029-2.819-0.058-4.163-0.12
			c-5.532-0.259-10.783,0.874-15.794,2.026c-0.085,0.019-0.168,0.039-0.252,0.056c0.953-3.397,2.227-6.733,3.848-10.074
			c3.199-6.598,6.537-12.355,9.955-17.089c0.231-0.321,0.521-0.664,0.824-1.027c1.566-1.892,3.91-4.721,3.714-8.408
			c0.033-4.893-3.511-8.562-5.871-11.006L127.5,7.973c-2.34-2.432-5.5-3.826-8.669-3.826c-2.754,0-5.377,1.068-7.389,3.007
			c-1.537,1.483-2.541,3.408-2.886,5.497c-0.036,0.121-0.067,0.241-0.094,0.36c-1.705,7.54-4.367,15.051-6.86,22.336
			c-1.658,4.845-3.373,9.854-4.872,14.895c-0.681,2.286-1.27,4.529-1.76,6.705c-1.304-0.154-2.625-0.325-3.981-0.502
			c-4.731-0.612-9.622-1.245-14.642-1.245L76.032,55.2c-7.892,0.041-16.169,1.785-26.052,5.492
			c-7.8,2.927-15.397,7.643-22.584,14.019c-2.274,2.021-4.271,4.205-6.258,6.852C3.192,99.578,3.398,130.602,3.895,139.717
			c1.437,26.497,14.758,55.009,36.547,78.226c8.255,8.79,19.422,19.334,32.615,22.856l0.931,0.249
			c3.53,0.95,7.183,1.931,11.103,1.931c2.367,0,4.604-0.347,6.836-1.063c2.063-0.66,3.874-1.621,5.473-2.468
			c0.935-0.494,1.816-0.962,2.676-1.337c1.781-0.776,3.973-0.936,6.715-0.936c0.531,0,1.061,0.006,1.589,0.01l0.747,0.009
			c3.254,0.023,6.448,1.297,9.83,2.645c2.564,1.023,5.223,2.054,8.075,2.711c0.372,0.087,0.801,0.141,1.183,0.141
			c0.135,0,0.283-0.006,0.441-0.02c1.208,0.201,2.427,0.299,3.693,0.299h0.002c3.931,0,7.596-0.983,11.141-1.938l0.88-0.234
			c13.193-3.523,24.36-14.066,32.614-22.857c21.79-23.219,35.112-51.729,36.549-78.225C214.66,118.989,210.166,91.87,194.18,77.93z"
			/>
		<path style="fill:#606060;" d="M193.75,77.542l-1.087-0.949c-5.92-5.173-11.512-10.06-18.896-13.731
			c-8.326-4.142-17.349-6.283-25.31-8.172c-4.346-1.029-8.957-1.126-13.416-1.219c-1.422-0.029-2.819-0.059-4.164-0.121
			c-5.532-0.259-10.774,0.904-15.794,2.026c-0.084,0.02-0.167,0.038-0.252,0.056c0.953-3.397,2.229-6.732,3.849-10.073
			c3.198-6.599,6.549-12.348,9.955-17.089c0.232-0.322,0.523-0.665,0.824-1.029c1.566-1.891,3.909-4.719,3.714-8.406
			c0.033-4.894-3.511-8.563-5.871-11.008l-0.232-0.24c-2.34-2.433-5.499-3.827-8.67-3.827c-2.753,0-5.376,1.067-7.389,3.008
			c-1.536,1.483-2.539,3.406-2.884,5.497c-0.037,0.12-0.069,0.24-0.095,0.359c-1.789,7.52-4.367,15.052-6.86,22.336
			c-1.658,4.845-3.373,9.854-4.873,14.895c-0.68,2.287-1.268,4.529-1.758,6.706c-1.306-0.155-2.626-0.326-3.981-0.502
			c-4.73-0.613-9.623-1.247-14.643-1.247l-0.315,0.001c-7.891,0.041-16.169,1.787-26.052,5.493
			c-7.8,2.927-15.397,7.643-22.583,14.02c-2.276,2.021-4.272,4.205-6.26,6.852C2.763,99.191,2.969,130.215,3.464,139.329
			c1.438,26.497,14.76,55.009,36.549,78.226c8.255,8.791,19.421,19.334,32.615,22.855l0.93,0.249
			c3.531,0.95,7.183,1.932,11.103,1.932c2.368,0,4.604-0.348,6.835-1.063c2.063-0.66,3.875-1.621,5.474-2.468
			c0.935-0.494,1.816-0.962,2.675-1.337c1.783-0.776,3.975-0.936,6.716-0.936c0.531,0,1.062,0.006,1.588,0.011l0.748,0.007
			c3.254,0.025,6.448,1.298,9.829,2.646c2.565,1.021,5.218,2.079,8.076,2.712c0.371,0.089,0.8,0.14,1.182,0.14
			c0.136,0,0.283-0.006,0.441-0.02c1.209,0.2,2.427,0.299,3.694,0.299h0.001c3.932,0,7.597-0.983,11.141-1.936l0.882-0.236
			c13.193-3.523,24.359-14.064,32.614-22.857c21.79-23.219,35.111-51.729,36.548-78.225
			C214.229,118.601,209.735,91.483,193.75,77.542z"/>
	</g>
	<path style="fill:#FFFFFF;" d="M193.75,77.542l-1.087-0.949c-5.92-5.173-11.512-10.06-18.896-13.731
		c-8.326-4.142-17.349-6.283-25.31-8.172c-4.346-1.029-8.957-1.126-13.416-1.219c-1.422-0.029-2.819-0.059-4.164-0.121
		c-5.532-0.259-10.774,0.904-15.794,2.026c-0.084,0.02-0.167,0.038-0.252,0.056c0.953-3.397,2.229-6.732,3.849-10.073
		c3.198-6.599,6.549-12.348,9.955-17.089c0.232-0.322,0.523-0.665,0.824-1.029c1.566-1.891,3.909-4.719,3.714-8.406
		c0.033-4.894-3.511-8.563-5.871-11.008l-0.232-0.24c-2.34-2.433-5.499-3.827-8.67-3.827c-2.753,0-5.376,1.067-7.389,3.008
		c-1.536,1.483-2.539,3.406-2.884,5.497c-0.037,0.12-0.069,0.24-0.095,0.359c-1.789,7.52-4.367,15.052-6.86,22.336
		c-1.658,4.845-3.373,9.854-4.873,14.895c-0.68,2.287-1.268,4.529-1.758,6.706c-1.306-0.155-2.626-0.326-3.981-0.502
		c-4.73-0.613-9.623-1.247-14.643-1.247l-0.315,0.001c-7.891,0.041-16.169,1.787-26.052,5.493c-7.8,2.927-15.397,7.643-22.583,14.02
		c-2.276,2.021-4.272,4.205-6.26,6.852C2.763,99.191,2.969,130.215,3.464,139.329c1.438,26.497,14.76,55.009,36.549,78.226
		c8.255,8.791,19.421,19.334,32.615,22.855l0.93,0.249c3.531,0.95,7.183,1.932,11.103,1.932c2.368,0,4.604-0.348,6.835-1.063
		c2.063-0.66,3.875-1.621,5.474-2.468c0.935-0.494,1.816-0.962,2.675-1.337c1.783-0.776,3.975-0.936,6.716-0.936
		c0.531,0,1.062,0.006,1.588,0.011l0.748,0.007c3.254,0.025,6.448,1.298,9.829,2.646c2.565,1.021,5.218,2.079,8.076,2.712
		c0.371,0.089,0.8,0.14,1.182,0.14c0.136,0,0.283-0.006,0.441-0.02c1.209,0.2,2.427,0.299,3.694,0.299h0.001
		c3.932,0,7.597-0.983,11.141-1.936l0.882-0.236c13.193-3.523,24.359-14.064,32.614-22.857
		c21.79-23.219,35.111-51.729,36.548-78.225C214.229,118.601,209.735,91.483,193.75,77.542z"/>
	<g>
		<path style="fill:#5E2C00;" d="M190.563,81.197c-6.079-5.302-11.695-10.384-18.955-13.993c-7.699-3.83-15.921-5.815-24.269-7.795
			c-5.193-1.231-11.359-0.966-16.688-1.215c-9.709-0.452-18.941,4.18-28.648,3.853c-8.857-0.299-17.521-2.433-26.376-2.385
			c-8.404,0.043-16.569,2.257-24.373,5.184c-7.783,2.921-14.862,7.601-21.067,13.105c-2.268,2.014-4.063,4.061-5.805,6.41
			C10.76,97.803,7.345,121.342,8.307,139.067c1.518,27.963,16.414,55.106,35.242,75.167c8.137,8.667,18.536,18.342,30.329,21.49
			c5.586,1.489,10.468,3.002,16.138,1.185c2.73-0.874,5.083-2.493,7.69-3.631c3.442-1.5,7.351-1.352,11.026-1.322
			c6.885,0.052,12.521,4.056,19.002,5.492c0.099,0.023,0.229-0.032,0.363-0.128c5.026,1.119,9.522-0.243,14.592-1.596
			c11.792-3.148,22.192-12.823,30.33-21.49c18.825-20.061,33.725-47.204,35.241-75.167
			C209.262,120.63,205.594,94.307,190.563,81.197z"/>
		<path style="fill:#ED1C28;" d="M204.124,145.987c-5.018,26.76-18.787,51.81-38.842,70.286
			c-7.73,7.119-17.557,15.483-28.418,17.516c-5.526,1.749-11.264,1.025-17.036-1.021c-4.111-1.458-8.546-4.114-13.016-4.063
			c-4.037,0.045-7.671,1.625-11.41,2.942c-0.913,0.451-1.834,0.889-2.787,1.275c-3.755,1.528-6.028,1.573-9.988,1.271
			c-12.022-0.915-22.924-10.165-31.341-17.92c-20.058-18.477-33.825-43.526-38.842-70.286c-3.505-18.698-1.199-47.558,14.507-61.095
			c15.096-18.494,42.444-26.104,65.522-19.964c2.112,0.376,4.239,0.654,6.412,0.627c7.11-0.087,13.898-2.08,20.854-3.293
			c6.508-1.135,13.143-1.693,19.735-1.022c11.599,1.181,23.909,4.118,33.698,10.676c4.668,3.129,9.052,5.063,12.784,9.458
			c1.977,1.269,4.386,4.282,6.145,5.877C205.569,101.566,207.436,128.318,204.124,145.987z"/>
		<path style="fill:#FDE8E9;" d="M19.886,169.409c-7.187-25.579-6.792-57.378,10.577-78.986
			C38.74,80.126,49.801,72.898,62.392,68.98c7.237-2.25,14.789-3.451,22.38-3.307c3.24,0.063,6.671,0.1,9.956-0.4
			c-0.754-0.1-1.506-0.212-2.254-0.345c-23.078-6.141-50.427,1.47-65.522,19.964C11.245,98.43,8.939,127.289,12.444,145.987
			c1.885,10.055,5.007,19.87,9.234,29.184C21.036,173.267,20.432,171.348,19.886,169.409z"/>
		<path style="fill:#DB4726;" d="M192.103,87.251c-1.76-1.595-4.168-4.608-6.145-5.877c-3.733-4.395-8.116-6.329-12.784-9.458
			c-9.789-6.558-22.1-9.495-33.698-10.676c-6.593-0.671-13.227-0.112-19.735,1.022c-6.955,1.213-13.743,3.206-20.854,3.293
			c-1.551,0.021-3.078-0.12-4.592-0.337c1.044,1.321,1.165,2.906-0.375,4.445c-3.339,3.333-10.74,4.449-8.243,10.792
			c0.121,0.306,0.26,0.601,0.409,0.889c0.026,0.052,0.055,0.104,0.081,0.156c0.101,0.187,0.214,0.367,0.326,0.548
			c0.75,1.165,1.812,2.176,3.39,3c0.591,0.309,1.195,0.574,1.805,0.818c3.738,0.978,7.578,0.925,11.396,0.251
			c6.321-1.119,12.659-3.328,19.157-2.788c0.049,0.004,0.099,0.01,0.147,0.014c8.624-0.601,17.828,3.482,23.136,10.054
			c8.302,10.281,12.322,24.393,14.602,37.172c2.741,15.389,2.9,31.248,1.177,46.768c-1.251,11.269-3.797,23.158-10.401,32.61
			c-3.139,4.494-7.093,8.478-11.92,11.151c-5.782,3.205-11.76,3.87-18.252,3.019c-6.518-0.855-13.067-3.012-19.705-2.189
			c-7.048,0.874-13.203,5.235-20.427,5.399c-6.951,0.158-13.086-3.156-18.689-6.976c-5.871-4-11.206-8.727-16.044-13.921
			c-11.353-12.188-20.948-26.409-28.352-41.649c6.892,19.543,18.502,37.425,33.774,51.492c8.417,7.755,19.318,17.005,31.341,17.92
			c3.96,0.303,6.233,0.258,9.988-1.271c0.953-0.387,1.874-0.824,2.787-1.275c3.739-1.317,7.373-2.898,11.41-2.942
			c4.47-0.052,8.904,2.605,13.016,4.063c5.772,2.047,11.51,2.771,17.036,1.021c10.861-2.032,20.688-10.396,28.418-17.516
			c20.055-18.477,33.824-43.526,38.842-70.286C207.436,128.318,205.569,101.566,192.103,87.251z"/>
		<g>
			<path style="fill:#5E2C00;" d="M124.697,25.438c1.271-1.769,3.846-4.085,3.622-6.484c0.112-3.103-2.777-5.962-4.745-8.007
				c-2.467-2.564-6.447-3.341-9.194-0.691c-0.927,0.894-1.449,2.095-1.525,3.308c-0.053,0.07-0.095,0.138-0.104,0.182
				c-3.038,12.772-8.063,24.924-11.803,37.49c-2.55,8.569-5.026,20.73-1.925,30.018c-3.791-0.893-7.387-2.781-10.732-4.737
				c0.595,0.918,1.27,1.774,2.016,2.56c0.739,0.745,1.508,1.457,2.404,2.025c0.951,0.604,1.927,1.166,2.912,1.707
				c1.701,0.721,3.545,1.135,5.496,1.144c5.694,0.022,10.774-1.84,15.103-5.287c-2.726,0.88-5.227,1.878-7.841,2.512
				c-1.518-13.277-0.139-25.402,5.936-37.935C117.244,37.201,120.771,30.9,124.697,25.438z"/>
			<path style="fill:#843A1C;" d="M105.23,81.717c-0.99,0.094-2.014,0.113-3.09,0.039c-0.704-4.314-1.688-8.514-1.72-12.984
				c-0.05-7.026,1.653-13.97,3.638-20.66c3.169-10.703,7.905-21.093,9.273-32.213c0.233,0.467,0.532,0.911,0.947,1.295
				c0.004,0.004,0.01,0.002,0.01,0.002c-0.654-1.996-0.724-4.545,0.557-5.949c2.145-2.357,5.479-0.697,7.429,1.087
				c1.883,1.726,5.867,5.857,3.973,8.626c-1.154,1.686-3.555,1.901-5.604,1.396c-0.089,0.253-0.091,0.487,0.095,0.629
				c1.152,0.873,2.64,0.953,3.99,0.495c-0.788,0.868-1.588,1.682-2.165,2.396c-1.868,2.306-3.251,5.053-4.853,7.546
				c-3.435,5.35-6.454,11.16-8.771,17.079C105.672,58.849,102.66,71.877,105.23,81.717z"/>
			<path style="fill:#843A1C;" d="M105.381,53.322c2.021-6.699,4.541-13.328,7.144-19.822c1.646-4.111,3.519-8.171,6.154-11.702
				c-1.148-3.197-1.626-6.546,1.066-7.264c2.374-0.631,4.315,0.284,5.994,1.829c-0.995-1.636-2.503-3.148-3.465-4.03
				c-1.95-1.784-5.284-3.444-7.429-1.087c-1.28,1.404-1.211,3.953-0.554,5.951c0,0-0.009,0-0.013-0.004
				c-0.415-0.384-0.714-0.828-0.947-1.295c-1.368,11.12-6.104,21.51-9.273,32.213c-1.984,6.69-3.688,13.634-3.638,20.66
				c0.026,3.773,0.731,7.354,1.375,10.973C101.308,70.87,102.812,61.836,105.381,53.322z"/>
		</g>
	</g>
</g>
</svg>
